<svg id="visual" viewBox="0 0 900 600" width="900" height="600" xmlns="http://www.w3.org/2000/svg" xmlns:xlink="http://www.w3.org/1999/xlink" version="1.1"><g transform="translate(445.3238876658391 298.8995074637508)"><path d="M171.8 -238.2C211.1 -207.8 223.5 -142.2 249.8 -77.4C276.1 -12.5 316.4 51.7 303 100.2C289.7 148.7 222.7 181.6 163.3 209.4C103.8 237.3 51.9 260.1 -1.9 262.7C-55.6 265.3 -111.3 247.5 -157.6 215.4C-203.9 183.3 -240.8 136.7 -266.9 80.9C-292.9 25.1 -308.1 -40 -284.8 -86.6C-261.5 -133.3 -199.6 -161.4 -145.7 -187.1C-91.8 -212.7 -45.9 -235.9 10.2 -249.8C66.2 -263.8 132.4 -268.6 171.8 -238.2" fill="#37BCBD"></path></g></svg>