<svg id="visual" viewBox="0 0 900 600" width="900" height="600" xmlns="http://www.w3.org/2000/svg" xmlns:xlink="http://www.w3.org/1999/xlink" version="1.1"><rect x="0" y="0" width="900" height="600" fill="#ffffff"></rect><path d="M448 0L425 0L425 120L458 120L458 240L445 240L445 360L450 360L450 480L451 480L451 600L0 600L0 480L0 480L0 360L0 360L0 240L0 240L0 120L0 120L0 0L0 0Z" fill="#652060"></path><path d="M409 0L387 0L387 120L387 120L387 240L413 240L413 360L408 360L408 480L377 480L377 600L0 600L0 480L0 480L0 360L0 360L0 240L0 240L0 120L0 120L0 0L0 0Z" fill="#603a7f"></path><path d="M336 0L356 0L356 120L348 120L348 240L332 240L332 360L337 360L337 480L355 480L355 600L0 600L0 480L0 480L0 360L0 360L0 240L0 240L0 120L0 120L0 0L0 0Z" fill="#51529a"></path><path d="M292 0L285 0L285 120L303 120L303 240L289 240L289 360L310 360L310 480L283 480L283 600L0 600L0 480L0 480L0 360L0 360L0 240L0 240L0 120L0 120L0 0L0 0Z" fill="#3969af"></path><path d="M254 0L238 0L238 120L261 120L261 240L245 240L245 360L262 360L262 480L252 480L252 600L0 600L0 480L0 480L0 360L0 360L0 240L0 240L0 120L0 120L0 0L0 0Z" fill="#007fbf"></path><path d="M194 0L211 0L211 120L189 120L189 240L195 240L195 360L190 360L190 480L191 480L191 600L0 600L0 480L0 480L0 360L0 360L0 240L0 240L0 120L0 120L0 0L0 0Z" fill="#0094c9"></path><path d="M141 0L157 0L157 120L141 120L141 240L158 240L158 360L165 360L165 480L141 480L141 600L0 600L0 480L0 480L0 360L0 360L0 240L0 240L0 120L0 120L0 0L0 0Z" fill="#00a8cc"></path><path d="M115 0L103 0L103 120L95 120L95 240L107 240L107 360L95 360L95 480L94 480L94 600L0 600L0 480L0 480L0 360L0 360L0 240L0 240L0 120L0 120L0 0L0 0Z" fill="#00bacb"></path><path d="M56 0L65 0L65 120L54 120L54 240L49 240L49 360L58 360L58 480L57 480L57 600L0 600L0 480L0 480L0 360L0 360L0 240L0 240L0 120L0 120L0 0L0 0Z" fill="#34ccc6"></path></svg>